Coordinates
version=1
nRows=30
nColumns=21
inDegrees=yes

Units are S.I. units (second, meters, Newtons, ...)
Angles are in degrees.

endheader
time	sternoclavicular_r2	sternoclavicular_r3	unrotscap_r3	unrotscap_r2	acromioclavicular_r2	acromioclavicular_r3	acromioclavicular_r1	unrothum_r1	unrothum_r3	unrothum_r2	elv_angle	shoulder_elev	shoulder1_r2	shoulder_rot	elbow_flexion	pro_sup	deviation	flexion	wrist_hand_r1	wrist_hand_r3
      0.00000000	     -2.34223432	      0.99205991	     -0.99205991	      2.34223432	     -0.47425481	      3.83276052	      1.72279947	     -1.72279947	     -3.83276052	      0.47425481	     82.32859160	      9.67863253	    -82.32859160	     19.88918149	      4.54063793	     90.00000000	      0.00000000	      0.00000000	      0.00000000	      0.00000000
      0.02016129	     -2.34223827	      0.99206158	     -0.99206158	      2.34223827	     -0.47425560	      3.83276698	      1.72280238	     -1.72280238	     -3.83276698	      0.47425560	     82.32866233	      9.67864884	    -82.32866233	     19.88918219	      4.54061123	     90.00000000	      0.00000000	      0.00000000	      0.00000000	      0.00000000
      0.04032258	     -2.34369115	      0.99267696	     -0.99267696	      2.34369115	     -0.47454978	      3.83514443	      1.72387103	     -1.72387103	     -3.83514443	      0.47454978	     82.33380541	      9.68465247	    -82.33380541	     19.88921609	      4.54105462	     90.00000000	      0.00000000	      0.00000000	      0.00000000	      0.00000000
      0.06048387	     -2.35145171	      0.99596396	     -0.99596396	      2.35145171	     -0.47612114	      3.84784357	      1.72957920	     -1.72957920	     -3.84784357	      0.47612114	     82.34350979	      9.71672084	    -82.34350979	     19.88933326	      4.54346226	     90.00000000	      0.00000000	      0.00000000	      0.00000000	      0.00000000
      0.08064516	     -2.37130980	      1.00437491	     -1.00437491	      2.37130980	     -0.48014200	      3.88033874	      1.74418556	     -1.74418556	     -3.88033874	      0.48014200	     82.37726819	      9.79877886	    -82.37726819	     19.88927960	      4.54546176	     90.00000000	      0.00000000	      0.00000000	      0.00000000	      0.00000000
      0.10080645	     -2.40574568	      1.01896033	     -1.01896033	      2.40574568	     -0.48711456	      3.93668856	      1.76951441	     -1.76951441	     -3.93668856	      0.48711456	     82.43143877	      9.94107558	    -82.43143877	     19.89000227	      4.56067909	     90.00000000	      0.00000000	      0.00000000	      0.00000000	      0.00000000
      0.12096774	     -2.46117558	      1.04243782	     -1.04243782	      2.46117558	     -0.49833799	      4.02739235	      1.81028515	     -1.81028515	     -4.02739235	      0.49833799	     82.51962093	     10.17012425	    -82.51962093	     19.89050927	      4.57731549	     90.00000000	      0.00000000	      0.00000000	      0.00000000	      0.00000000
      0.14112903	     -2.54000645	      1.07582685	     -1.07582685	      2.54000645	     -0.51429964	      4.15638876	      1.86826814	     -1.86826814	     -4.15638876	      0.51429964	     82.63182109	     10.49587088	    -82.63182109	     19.89170842	      4.60141315	     90.00000000	      0.00000000	      0.00000000	      0.00000000	      0.00000000
      0.16129032	     -2.64286151	      1.11939140	     -1.11939140	      2.64286151	     -0.53512569	      4.32469763	      1.94392182	     -1.94392182	     -4.32469763	      0.53512569	     82.71913559	     10.92089083	    -82.71913559	     19.89513116	      4.65034046	     90.00000000	      0.00000000	      0.00000000	      0.00000000	      0.00000000
      0.18145161	     -2.77711800	      1.17625611	     -1.17625611	      2.77711800	     -0.56230990	      4.54439085	      2.04267241	     -2.04267241	     -4.54439085	      0.56230990	     82.92084344	     11.47566850	    -82.92084344	     19.89581749	      4.68230902	     90.00000000	      0.00000000	      0.00000000	      0.00000000	      0.00000000
      0.20161290	     -2.94204979	      1.24611343	     -1.24611343	      2.94204979	     -0.59570524	      4.81428017	      2.16398581	     -2.16398581	     -4.81428017	      0.59570524	     83.15212962	     12.15720327	    -83.15212962	     19.89503234	      4.71182340	     90.00000000	      0.00000000	      0.00000000	      0.00000000	      0.00000000
      0.22177419	     -3.13500738	      1.32784116	     -1.32784116	      3.13500738	     -0.63477522	      5.13003007	      2.30591321	     -2.30591321	     -5.13003007	      0.63477522	     83.34416107	     12.95454692	    -83.34416107	     19.89698176	      4.77438252	     90.00000000	      0.00000000	      0.00000000	      0.00000000	      0.00000000
      0.24193548	     -3.35965108	      1.42298963	     -1.42298963	      3.35965108	     -0.68026100	      5.49763014	      2.47114691	     -2.47114691	     -5.49763014	      0.68026100	     83.51248001	     13.88282457	    -83.51248001	     19.90088474	      4.83875525	     90.00000000	      0.00000000	      0.00000000	      0.00000000	      0.00000000
      0.26209677	     -3.61703673	      1.53200605	     -1.53200605	      3.61703673	     -0.73237636	      5.91880814	      2.66046353	     -2.66046353	     -5.91880814	      0.73237636	     83.76047774	     14.94639929	    -83.76047774	     19.90064379	      4.89615439	     90.00000000	      0.00000000	      0.00000000	      0.00000000	      0.00000000
      0.28225806	     -3.90445167	      1.65374145	     -1.65374145	      3.90445167	     -0.79057204	      6.38912515	      2.87186778	     -2.87186778	     -6.38912515	      0.79057204	     83.95075285	     16.13406167	    -83.95075285	     19.90348617	      4.97198313	     90.00000000	      0.00000000	      0.00000000	      0.00000000	      0.00000000
      0.30241935	     -4.22199534	      1.78823796	     -1.78823796	      4.22199534	     -0.85486817	      6.90874387	      3.10543282	     -3.10543282	     -6.90874387	      0.85486817	     84.14514414	     17.44622262	    -84.14514414	     19.90574724	      5.04917559	     90.00000000	      0.00000000	      0.00000000	      0.00000000	      0.00000000
      0.32258065	     -4.56879680	      1.93512669	     -1.93512669	      4.56879680	     -0.92508842	      7.47623917	      3.36051805	     -3.36051805	     -7.47623917	      0.92508842	     84.33151957	     18.87928330	    -84.33151957	     19.89752639	      5.12702448	     90.00000000	      0.00000000	      0.00000000	      0.00000000	      0.00000000
      0.34274194	     -4.94285087	      2.09355834	     -2.09355834	      4.94285087	     -1.00082676	      8.08832979	      3.63564858	     -3.63564858	     -8.08832979	      1.00082676	     84.50341122	     20.42495781	    -84.50341122	     19.90826762	      5.20789256	     90.00000000	      0.00000000	      0.00000000	      0.00000000	      0.00000000
      0.36290323	     -5.34248099	      2.26282280	     -2.26282280	      5.34248099	     -1.08174373	      8.74227229	      3.92959123	     -3.92959123	     -8.74227229	      1.08174373	     84.66618925	     22.07631826	    -84.66618925	     19.90980133	      5.28726096	     90.00000000	      0.00000000	      0.00000000	      0.00000000	      0.00000000
      0.38306452	     -5.76560026	      2.44203615	     -2.44203615	      5.76560026	     -1.16741677	      9.43465170	      4.24081101	     -4.24081101	     -9.43465170	      1.16741677	     84.81588857	     23.82474107	    -84.81588857	     19.90999984	      5.36579494	     90.00000000	      0.00000000	      0.00000000	      0.00000000	      0.00000000
      0.40322581	     -6.20972481	      2.63014635	     -2.63014635	      6.20972481	     -1.25734296	     10.16140352	      4.56748095	     -4.56748095	    -10.16140352	      1.25734296	     84.95199078	     25.65996238	    -84.95199078	     19.91027361	      5.44207324	     90.00000000	      0.00000000	      0.00000000	      0.00000000	      0.00000000
      0.42338710	     -6.67221787	      2.82603658	     -2.82603658	      6.67221787	     -1.35098840	     10.91821299	      4.90766160	     -4.90766160	    -10.91821299	      1.35098840	     85.07812048	     27.57108643	    -85.07812048	     19.91021312	      5.51355399	     90.00000000	      0.00000000	      0.00000000	      0.00000000	      0.00000000
      0.44354839	     -7.14963426	      3.02824763	     -3.02824763	      7.14963426	     -1.44765550	     11.69944255	      5.25881891	     -5.25881891	    -11.69944255	      1.44765550	     85.18760640	     29.54387700	    -85.18760640	     19.91037717	      5.58494803	     90.00000000	      0.00000000	      0.00000000	      0.00000000	      0.00000000
      0.46370968	     -7.63942608	      3.23570033	     -3.23570033	      7.63942608	     -1.54682838	     12.50092289	      5.61907881	     -5.61907881	    -12.50092289	      1.54682838	     85.29126507	     31.56780562	    -85.29126507	     19.90945032	      5.64894527	     90.00000000	      0.00000000	      0.00000000	      0.00000000	      0.00000000
      0.48387097	     -8.14188967	      3.44852019	     -3.44852019	      8.14188967	     -1.64856704	     13.32313892	      5.98865925	     -5.98865925	    -13.32313892	      1.64856704	     85.39909806	     33.64409679	    -85.39909806	     19.88122636	      5.68163519	     90.00000000	      0.00000000	      0.00000000	      0.00000000	      0.00000000
      0.50403226	     -8.64599977	      3.66203743	     -3.66203743	      8.64599977	     -1.75063908	     14.14804925	      6.35945077	     -6.35945077	    -14.14804925	      1.75063908	     85.47409606	     35.72719170	    -85.47409606	     19.90510247	      5.73604445	     90.00000000	      0.00000000	      0.00000000	      0.00000000	      0.00000000
      0.52419355	     -9.15425972	      3.87731236	     -3.87731236	      9.15425972	     -1.85355138	     14.97975027	      6.73329465	     -6.73329465	    -14.97975027	      1.85355138	     85.55012165	     37.82743474	    -85.55012165	     19.90206093	      5.77037608	     90.00000000	      0.00000000	      0.00000000	      0.00000000	      0.00000000
      0.54435484	     -9.66152314	      4.09216520	     -4.09216520	      9.66152314	     -1.95626191	     15.80982060	      7.10640555	     -7.10640555	    -15.80982060	      1.95626191	     85.61429294	     39.92355987	    -85.61429294	     19.89827435	      5.79814264	     90.00000000	      0.00000000	      0.00000000	      0.00000000	      0.00000000
      0.56451613	    -10.16478798	      4.30532444	     -4.30532444	     10.16478798	     -2.05816280	     16.63334777	      7.47657535	     -7.47657535	    -16.63334777	      2.05816280	     85.67349320	     42.00316198	    -85.67349320	     19.89429711	      5.81293713	     90.00000000	      0.00000000	      0.00000000	      0.00000000	      0.00000000
      0.58467742	    -10.65954458	      4.51487998	     -4.51487998	     10.65954458	     -2.15834095	     17.44295231	      7.84048702	     -7.84048702	    -17.44295231	      2.15834095	     85.72198331	     44.04760615	    -85.72198331	     19.88954315	      5.82255440	     90.00000000	      0.00000000	      0.00000000	      0.00000000	      0.00000000
